<?xml version="1.0" encoding="UTF-8" standalone="no"?>
<!-- Created with Inkscape (http://www.inkscape.org/) -->

<svg
   version="1.1"
   id="svg595"
   width="635.1604"
   height="89.873001"
   viewBox="0 0 635.16041 89.872998"
   xmlns="http://www.w3.org/2000/svg"
   xmlns:svg="http://www.w3.org/2000/svg">
  <defs
     id="defs599">
    <clipPath
       clipPathUnits="userSpaceOnUse"
       id="clipPath607">
      <path
         d="M 59.5801,387.496 H 535.951 v 67.405 H 59.5801 Z"
         id="path605" />
    </clipPath>
    <clipPath
       clipPathUnits="userSpaceOnUse"
       id="clipPath617">
      <path
         d="M 0,841.89 H 595.28 V 0 H 0 Z"
         id="path615" />
    </clipPath>
    <radialGradient
       fx="0"
       fy="0"
       cx="0"
       cy="0"
       r="1"
       gradientUnits="userSpaceOnUse"
       gradientTransform="matrix(18.206879,0,0,-18.206879,123.01025,417.20703)"
       spreadMethod="pad"
       id="radialGradient721">
      <stop
         style="stop-opacity:1;stop-color:#8bd3e7"
         offset="0"
         id="stop713" />
      <stop
         style="stop-opacity:1;stop-color:#3989bb"
         offset="0.8022"
         id="stop715" />
      <stop
         style="stop-opacity:1;stop-color:#085e90"
         offset="0.945053"
         id="stop717" />
      <stop
         style="stop-opacity:1;stop-color:#006097"
         offset="1"
         id="stop719" />
    </radialGradient>
    <clipPath
       clipPathUnits="userSpaceOnUse"
       id="clipPath731">
      <path
         d="M 0,841.89 H 595.28 V 0 H 0 Z"
         id="path729" />
    </clipPath>
  </defs>
  <g
     id="g603"
     transform="matrix(1.3333333,0,0,-1.3333333,-79.440513,606.53505)"
     clip-path="url(#clipPath607)">
    <path
       d="m 197.274,424.944 h 4.791 v -26.372 h -4.791 z"
       style="fill:#132e53;fill-opacity:1;fill-rule:nonzero;stroke:none"
       id="path609" />
    <g
       id="g611">
      <g
         id="g613"
         clip-path="url(#clipPath617)">
        <g
           id="g619"
           transform="translate(208.0078,417.5166)">
          <path
             d="m 0,0 h 4.532 v -2.191 c 0,-0.706 -0.074,-1.301 -0.074,-1.301 h 0.074 c 0.817,1.596 2.897,3.937 6.722,3.937 4.198,0 6.575,-2.191 6.575,-7.207 v -12.182 h -4.68 v 11.217 c 0,2.305 -0.594,3.863 -3.008,3.863 -2.526,0 -4.383,-1.597 -5.089,-3.863 -0.26,-0.781 -0.334,-1.634 -0.334,-2.527 v -8.69 H 0 Z"
             style="fill:#132e53;fill-opacity:1;fill-rule:nonzero;stroke:none"
             id="path621" />
        </g>
        <g
           id="g623"
           transform="translate(231.7432,413.4688)">
          <path
             d="M 0,0 H -2.34 V 3.75 H 0 v 0.854 c 0,6.203 5.088,7.02 7.725,7.02 0.966,0 1.597,-0.111 1.597,-0.111 V 7.501 c 0,0 -0.407,0.075 -0.965,0.075 -1.337,0 -3.64,-0.335 -3.64,-3.083 V 3.75 H 8.766 V 0 H 4.717 V -14.896 H 0 Z"
             style="fill:#132e53;fill-opacity:1;fill-rule:nonzero;stroke:none"
             id="path625" />
        </g>
        <g
           id="g627"
           transform="translate(252.6914,402.1387)">
          <path
             d="m 0,0 c 3.046,0 5.608,2.377 5.608,5.905 0,3.492 -2.562,5.908 -5.608,5.908 -3.083,0 -5.646,-2.416 -5.646,-5.908 C -5.646,2.377 -3.083,0 0,0 M -0.038,15.823 C 5.757,15.823 10.4,11.7 10.4,5.905 10.4,0.075 5.757,-4.012 0,-4.012 c -5.794,0 -10.437,4.087 -10.437,9.917 0,5.795 4.643,9.918 10.399,9.918"
             style="fill:#132e53;fill-opacity:1;fill-rule:nonzero;stroke:none"
             id="path629" />
        </g>
        <g
           id="g631"
           transform="translate(266.8809,417.5166)">
          <path
             d="m 0,0 h 4.532 v -3.27 c 0,-0.706 -0.074,-1.336 -0.074,-1.336 h 0.074 c 0.855,2.71 3.119,4.868 6.016,4.868 0.447,0 0.855,-0.078 0.855,-0.078 v -4.643 c 0,0 -0.482,0.077 -1.114,0.077 -2.005,0 -4.271,-1.153 -5.164,-3.975 -0.296,-0.929 -0.407,-1.969 -0.407,-3.083 v -7.504 H 0 Z"
             style="fill:#132e53;fill-opacity:1;fill-rule:nonzero;stroke:none"
             id="path633" />
        </g>
        <g
           id="g635"
           transform="translate(281.4785,417.5166)">
          <path
             d="m 0,0 h 4.532 v -2.191 c 0,-0.706 -0.074,-1.301 -0.074,-1.301 h 0.074 c 0.928,1.857 3.195,3.937 6.165,3.937 2.897,0 4.755,-1.338 5.534,-3.898 h 0.076 c 1.039,2.041 3.492,3.898 6.462,3.898 3.936,0 6.205,-2.23 6.205,-7.207 v -12.182 h -4.719 v 11.293 c 0,2.152 -0.408,3.787 -2.6,3.787 -2.414,0 -4.011,-1.93 -4.569,-4.31 -0.186,-0.74 -0.222,-1.557 -0.222,-2.449 v -8.321 h -4.718 v 11.293 c 0,2.041 -0.334,3.787 -2.563,3.787 -2.452,0 -4.049,-1.93 -4.643,-4.344 C 4.754,-8.914 4.718,-9.77 4.718,-10.623 v -8.321 H 0 Z"
             style="fill:#132e53;fill-opacity:1;fill-rule:nonzero;stroke:none"
             id="path637" />
        </g>
        <g
           id="g639"
           transform="translate(327.3145,410.3848)">
          <path
             d="M 0,0 C -0.075,2.562 -1.671,3.938 -3.751,3.938 -6.164,3.938 -7.838,2.45 -8.282,0 Z m -3.64,7.577 c 5.461,0 8.395,-3.975 8.395,-8.989 0,-0.559 -0.111,-1.821 -0.111,-1.821 H -8.433 c 0.3,-3.303 2.862,-5.013 5.684,-5.013 3.047,0 5.46,2.08 5.46,2.08 l 1.821,-3.379 c 0,0 -2.897,-2.713 -7.615,-2.713 -6.278,0 -10.177,4.532 -10.177,9.917 0,5.831 3.974,9.918 9.62,9.918"
             style="fill:#132e53;fill-opacity:1;fill-rule:nonzero;stroke:none"
             id="path641" />
        </g>
        <g
           id="g643"
           transform="translate(344.1406,402.1025)">
          <path
             d="m 0,0 c 2.45,0 4.755,1.782 4.755,5.978 0,2.936 -1.56,5.833 -4.719,5.833 -2.599,0 -4.754,-2.119 -4.754,-5.87 C -4.718,2.341 -2.785,0 0,0 m -0.892,15.859 c 4.16,0 5.46,-2.414 5.46,-2.414 h 0.076 c 0,0 -0.04,0.485 -0.04,1.076 v 8.321 H 9.322 V -3.53 H 4.866 v 1.561 c 0,0.706 0.074,1.224 0.074,1.224 H 4.866 c 0,0 -1.598,-3.231 -5.944,-3.231 -5.124,0 -8.394,4.048 -8.394,9.917 0,6.02 3.567,9.918 8.58,9.918"
             style="fill:#132e53;fill-opacity:1;fill-rule:nonzero;stroke:none"
             id="path645" />
        </g>
        <path
           d="m 368.43,424.944 h 4.793 v -26.372 h -4.793 z"
           style="fill:#132e53;fill-opacity:1;fill-rule:nonzero;stroke:none"
           id="path647" />
        <g
           id="g649"
           transform="translate(379.165,417.5166)">
          <path
             d="m 0,0 h 4.531 v -2.191 c 0,-0.706 -0.074,-1.301 -0.074,-1.301 h 0.074 c 0.818,1.596 2.898,3.937 6.723,3.937 4.198,0 6.576,-2.191 6.576,-7.207 v -12.182 h -4.683 v 11.217 c 0,2.305 -0.591,3.863 -3.007,3.863 -2.525,0 -4.382,-1.597 -5.088,-3.863 -0.259,-0.781 -0.334,-1.634 -0.334,-2.527 v -8.69 H 0 Z"
             style="fill:#132e53;fill-opacity:1;fill-rule:nonzero;stroke:none"
             id="path651" />
        </g>
        <g
           id="g653"
           transform="translate(410.1064,402.1025)">
          <path
             d="m 0,0 c 2.452,0 4.755,1.782 4.755,5.978 0,2.936 -1.561,5.833 -4.716,5.833 -2.602,0 -4.755,-2.119 -4.755,-5.87 C -4.716,2.341 -2.786,0 0,0 m -0.89,15.859 c 4.16,0 5.458,-2.414 5.458,-2.414 h 0.076 c 0,0 -0.037,0.485 -0.037,1.076 v 8.321 H 9.322 V -3.53 H 4.865 v 1.561 c 0,0.706 0.075,1.224 0.075,1.224 H 4.865 c 0,0 -1.595,-3.231 -5.941,-3.231 -5.127,0 -8.394,4.048 -8.394,9.917 0,6.02 3.565,9.918 8.58,9.918"
             style="fill:#132e53;fill-opacity:1;fill-rule:nonzero;stroke:none"
             id="path655" />
        </g>
        <path
           d="m 424.631,417.517 h 4.718 v -18.944 h -4.718 z m 0,7.427 h 4.68 v -4.197 h -4.68 z"
           style="fill:#132e53;fill-opacity:1;fill-rule:nonzero;stroke:none"
           id="path657" />
        <g
           id="g659"
           transform="translate(431.9482,417.5166)">
          <path
             d="m 0,0 h 4.977 l 3.937,-11.738 c 0.372,-1.113 0.631,-2.859 0.67,-2.859 h 0.072 c 0.039,0 0.298,1.746 0.67,2.859 L 14.264,0 H 19.24 L 12.442,-18.944 H 6.87 Z"
             style="fill:#132e53;fill-opacity:1;fill-rule:nonzero;stroke:none"
             id="path661" />
        </g>
        <path
           d="m 453.826,417.517 h 4.719 v -18.944 h -4.719 z m 0,7.427 h 4.68 v -4.197 h -4.68 z"
           style="fill:#132e53;fill-opacity:1;fill-rule:nonzero;stroke:none"
           id="path663" />
        <g
           id="g665"
           transform="translate(471.915,402.1025)">
          <path
             d="m 0,0 c 2.452,0 4.755,1.782 4.755,5.978 0,2.936 -1.561,5.833 -4.716,5.833 -2.602,0 -4.755,-2.119 -4.755,-5.87 C -4.716,2.341 -2.785,0 0,0 m -0.89,15.859 c 4.16,0 5.458,-2.414 5.458,-2.414 h 0.076 c 0,0 -0.037,0.485 -0.037,1.076 v 8.321 H 9.322 V -3.53 H 4.866 v 1.561 c 0,0.706 0.074,1.224 0.074,1.224 H 4.866 c 0,0 -1.596,-3.231 -5.942,-3.231 -5.127,0 -8.394,4.048 -8.394,9.917 0,6.02 3.565,9.918 8.58,9.918"
             style="fill:#132e53;fill-opacity:1;fill-rule:nonzero;stroke:none"
             id="path667" />
        </g>
        <g
           id="g669"
           transform="translate(486.1807,417.5166)">
          <path
             d="m 0,0 h 4.716 v -11.219 c 0,-2.302 0.595,-3.861 2.935,-3.861 3.417,0 5.311,3.008 5.311,6.389 V 0 h 4.718 v -18.944 h -4.532 v 2.156 c 0,0.74 0.075,1.335 0.075,1.335 H 13.148 C 12.22,-17.421 9.806,-19.39 6.573,-19.39 2.524,-19.39 0,-17.347 0,-12.184 Z"
             style="fill:#132e53;fill-opacity:1;fill-rule:nonzero;stroke:none"
             id="path671" />
        </g>
        <g
           id="g673"
           transform="translate(515.0762,401.8047)">
          <path
             d="M 0,0 C 2.489,0 4.273,2.673 4.273,4.978 V 5.422 H 3.456 C 1.04,5.422 -2.857,5.089 -2.857,2.45 -2.857,1.188 -1.93,0 0,0 m 3.604,8.655 h 0.63 v 0.259 c 0,2.488 -1.559,3.345 -3.638,3.345 -2.711,0 -5.2,-1.821 -5.2,-1.821 l -1.782,3.378 c 0,0 2.933,2.341 7.426,2.341 4.98,0 7.877,-2.748 7.877,-7.541 V -3.232 H 4.571 v 1.561 c 0,0.742 0.073,1.335 0.073,1.335 H 4.571 c 0.036,0 -1.449,-3.342 -5.758,-3.342 -3.38,0 -6.425,2.118 -6.425,5.906 0,6.016 8.133,6.427 11.216,6.427"
             style="fill:#132e53;fill-opacity:1;fill-rule:nonzero;stroke:none"
             id="path675" />
        </g>
        <g
           id="g677"
           transform="translate(528.6357,424.9443)">
          <path
             d="m 0,0 h 4.68 v -19.761 c 0,-2.08 0.706,-2.597 1.931,-2.597 0.37,0 0.704,0.034 0.704,0.034 v -4.121 c 0,0 -0.704,-0.112 -1.484,-0.112 -2.6,0 -5.831,0.668 -5.831,6.09 z"
             style="fill:#132e53;fill-opacity:1;fill-rule:nonzero;stroke:none"
             id="path679" />
        </g>
        <g
           id="g681"
           transform="translate(123.4385,387.6992)">
          <path
             d="m 0,0 c -28.507,0 -42.47,20.386 -42.602,20.589 l -0.877,1.364 1.147,1.139 c 4.266,4.229 20.75,13.496 41.979,13.496 24.901,0 40.865,-19.282 40.918,-24.109 0.002,-2.284 -1.908,-3.984 -4.44,-3.984 -1.362,0 -2.338,0.36 -3.041,0.868 C 24.214,3.064 13.367,0 0,0"
             style="fill:#132e53;fill-opacity:1;fill-rule:nonzero;stroke:none"
             id="path683" />
        </g>
        <g
           id="g685"
           transform="translate(123.4385,389.6963)">
          <path
             d="m 0,0 c -24.291,0 -38.425,15.812 -40.921,19.676 3.163,3.138 18.705,12.916 40.568,12.916 24.239,0 38.883,-18.559 38.918,-22.132 0,-1.279 -1.207,-1.962 -2.44,-1.962 -1.621,0 -2.258,0.66 -2.76,1.563 C 27.735,5.717 17.925,0 0,0"
             style="fill:#ffffff;fill-opacity:1;fill-rule:nonzero;stroke:none"
             id="path687" />
        </g>
        <g
           id="g689"
           transform="translate(121.2354,417.9521)">
          <path
             d="m 0,0 c 14.245,0 25.498,-5.057 32.938,-10.326 7.174,-5.558 -0.528,-5.199 0.93,-9.122 19.553,-4.919 -3.441,23.784 -32.018,23.784 -21.863,0 -37.405,-9.777 -40.568,-12.916 0.017,-0.022 0.039,-0.054 0.056,-0.08 C -30.932,-4.796 -17.24,0 0,0"
             style="fill:#d3e8ef;fill-opacity:1;fill-rule:nonzero;stroke:none"
             id="path691" />
        </g>
        <g
           id="g693"
           transform="translate(143.459,409.4834)">
          <path
             d="m 0,0 c 0,3.26 -0.776,6.336 -2.136,9.068 -5.23,2.231 -11.345,3.737 -18.238,3.737 -6.354,0 -12.174,-0.829 -17.314,-2.079 C -39.622,7.607 -40.747,3.937 -40.747,0 c 0,-9.057 5.913,-16.729 14.083,-19.381 2.126,-0.261 4.335,-0.406 6.643,-0.406 1.795,0 3.504,0.058 5.143,0.17 C -6.297,-17.219 0,-9.35 0,0"
             style="fill:#132e53;fill-opacity:1;fill-rule:nonzero;stroke:none"
             id="path695" />
        </g>
        <g
           id="g697"
           transform="translate(159.5635,398.1943)">
          <path
             d="M 0,0 C -1.621,0 -2.258,0.66 -2.76,1.563 -8.39,-2.781 -18.2,-8.498 -36.125,-8.498 c -24.291,0 -38.425,15.811 -40.921,19.676 3.163,3.138 18.705,12.916 40.568,12.916 C -12.239,24.094 2.405,5.535 2.44,1.962 2.44,0.683 1.233,0 0,0 m -36.478,26.294 c -21.294,0 -37.839,-9.308 -42.117,-13.55 l -1.266,-1.257 0.97,-1.5 c 0.132,-0.208 14.148,-20.685 42.766,-20.685 13.376,0 24.196,3.047 33.084,9.32 C -2.215,-1.925 -1.197,-2.2 0,-2.2 c 1.275,0 2.451,0.421 3.306,1.187 0.861,0.772 1.339,1.835 1.339,2.996 -0.057,4.866 -16.099,24.311 -41.123,24.311"
             style="fill:#132e53;fill-opacity:1;fill-rule:nonzero;stroke:none"
             id="path699" />
        </g>
      </g>
    </g>
    <g
       id="g701">
      <g
         id="g703">
        <g
           id="g709">
          <g
             id="g711">
            <path
               d="m 111.617,409.484 c 0,-6.334 5.134,-11.471 11.467,-11.471 v 0 c 6.335,0 11.469,5.137 11.469,11.471 v 0 c 0,6.332 -5.134,11.467 -11.469,11.467 v 0 c -6.333,0 -11.467,-5.135 -11.467,-11.467"
               style="fill:url(#radialGradient721);stroke:none"
               id="path723" />
          </g>
        </g>
      </g>
    </g>
    <g
       id="g725">
      <g
         id="g727"
         clip-path="url(#clipPath731)">
        <g
           id="g733"
           transform="translate(116.9692,417.4678)">
          <path
             d="M 0,0 C 0.05,-0.021 0.101,-0.043 0.159,-0.079 0.142,-0.019 0.126,0.042 0.113,0.111 0.076,0.073 0.04,0.034 0,0 m 0.79,-0.503 c 0.003,0.01 0.013,0.02 0.016,0.029 C 0.79,-0.476 0.774,-0.479 0.757,-0.479 0.769,-0.485 0.78,-0.493 0.79,-0.503 m -2.36,-3.394 c -0.039,0.162 -0.108,0.319 -0.262,0.42 0.168,0.201 0.372,0.44 0.551,0.674 0.036,0.037 0.3,0.231 0.725,0.482 -0.351,-0.523 -0.689,-1.054 -1.014,-1.576 m 0.604,2.364 c 0.099,0.296 0.198,0.591 0.308,0.876 -0.133,-0.349 -0.206,-0.639 -0.277,-0.927 -0.06,-0.261 -0.101,-0.396 -0.175,-0.413 -0.006,0.06 -0.036,0.116 -0.114,0.097 -0.054,0.048 -0.153,0.019 -0.325,0.004 0.195,0.122 0.386,0.245 0.583,0.363 m -1.281,-3.758 c -0.092,-0.115 -0.149,-0.162 -0.198,-0.166 -0.106,-0.018 -0.169,0.084 -0.191,0.282 -0.003,0.175 0.005,0.378 0.011,0.547 0.093,-0.017 0.169,-0.039 0.192,-0.034 0.244,-0.063 0.356,-0.15 0.329,-0.329 -0.017,-0.109 -0.055,-0.184 -0.143,-0.3 m 0.309,3.974 C -2.76,-2.108 -3.36,-2.57 -3.794,-2.742 c -0.74,-1.393 -1.187,-2.96 -1.282,-4.616 0.003,0.009 0.003,0.016 0.01,0.026 0.076,0.104 0.129,0.141 0.176,0.175 0.286,0.188 0.545,0.313 0.767,0.338 0.201,0.022 0.37,-0.063 0.536,-0.254 0.065,-0.133 0.139,-0.266 0.212,-0.365 -0.183,-0.155 -0.313,-0.261 -0.363,-0.333 -0.053,-0.038 -0.104,-0.107 -0.18,-0.213 0.275,-0.025 0.552,-0.082 0.835,-0.218 0.103,-0.034 0.232,-0.066 0.415,-0.172 0.107,0.075 0.223,0.147 0.335,0.225 -0.182,0.065 -0.389,0.135 -0.645,0.162 -0.151,0.104 -0.23,0.314 -0.21,0.699 0.006,0.179 0.144,0.431 0.457,0.776 0.275,0.312 0.618,0.631 1.019,1.003 0.371,0.334 0.8,0.678 1.257,0.992 0.144,0.092 0.342,0.228 0.575,0.404 0.098,0.012 0.174,-0.012 0.247,-0.043 0.071,-0.028 0.14,-0.095 0.266,-0.157 0.031,0.255 0.064,0.509 0.105,0.761 -0.143,0.244 -0.26,0.443 -0.388,0.675 -0.108,0.087 -0.194,0.145 -0.3,0.227 0.28,0.281 0.567,0.561 0.844,0.837 0.089,-0.066 0.182,-0.128 0.268,-0.199 -0.115,0.47 -0.203,0.75 -0.28,0.895 -0.089,0.114 -0.162,0.16 -0.288,0.136 -0.047,-0.01 -0.149,-0.032 -0.284,-0.092 -0.122,-0.03 -0.25,0.005 -0.377,0.098 -0.119,0.061 -0.231,0.279 -0.33,0.583 C -0.262,-0.261 -0.132,-0.13 0,0 -0.089,0.039 -0.167,0.056 -0.214,0.044 -0.48,-0.036 -1.041,-0.464 -1.938,-1.317 m 2.097,1.238 c 0.047,-0.157 0.125,-0.274 0.232,-0.331 0.103,-0.059 0.227,-0.073 0.366,-0.069 -0.204,0.153 -0.39,0.276 -0.572,0.39 -0.011,0.005 -0.017,0.005 -0.026,0.01 m 3.78,-1.232 c 0.218,-0.021 0.383,-0.043 0.503,-0.072 -0.204,0.16 -0.401,0.313 -0.591,0.459 0.369,0.431 0.587,0.695 0.67,0.804 0.078,0.074 0.272,0.483 0.535,1.149 C 4.724,1.065 4.345,1.059 3.911,0.999 3.496,0.946 3.047,0.844 2.613,0.729 2.17,0.617 1.711,0.517 1.245,0.404 1.168,0.213 1.144,0.093 1.157,0.065 1.037,-0.102 0.925,-0.3 0.806,-0.474 c 0.05,0.005 0.099,0 0.154,0.01 0.116,0.026 0.277,0.092 0.479,0.164 0.198,0.073 0.33,0.126 0.4,0.141 0.286,0.054 0.349,-0.184 0.217,-0.745 C 2.023,-1.047 1.976,-1.155 1.929,-1.267 1.883,-1.378 1.781,-1.596 1.694,-1.932 1.736,-1.961 1.78,-1.992 1.858,-1.98 1.895,-2.048 1.935,-2.077 2,-2.143 c 0.309,0.223 0.642,0.441 0.969,0.661 0.19,0.128 0.318,0.181 0.442,0.191 0.121,0.015 0.307,-0.005 0.528,-0.02 m 4.587,-4.41 C 8.37,-6.053 8.287,-6.225 8.26,-6.225 8.034,-6.05 7.871,-5.963 7.76,-5.963 7.678,-5.963 7.566,-6.045 7.458,-6.176 7.347,-6.297 7.269,-6.343 7.209,-6.343 c -0.079,0 -0.191,0.046 -0.277,0.172 -0.221,0.213 -0.44,0.426 -0.66,0.634 -0.189,0.125 -0.405,0.208 -0.652,0.205 -0.031,0 -0.11,0 -0.22,-0.002 -0.08,-0.005 -0.187,-0.005 -0.275,-0.049 0.169,0.126 0.337,0.3 0.501,0.426 0.249,0.213 0.333,0.465 0.258,0.668 0.239,0.087 0.427,0.048 0.558,-0.155 0.112,-0.167 0.135,-0.418 0.08,-0.711 0.22,-0.085 0.384,-0.044 0.462,0.123 0.056,0.213 0.11,0.46 0.162,0.665 0.213,-0.125 0.408,-0.375 0.601,-0.711 0.112,-0.213 0.307,-0.341 0.576,-0.348 H 8.49 c 0.083,0 0.166,-0.005 0.247,0.036 -0.058,0.002 -0.109,-0.121 -0.211,-0.331 m 8.814,-2.293 c 0,2.23 -0.658,4.305 -1.78,6.053 -0.857,0.273 -1.38,0.442 -1.559,0.559 -0.559,0.38 -0.957,0.624 -1.219,0.807 -0.799,0.516 -1.203,0.777 -1.276,0.791 C 11.276,0.024 10.999,-0.12 10.701,-0.314 10.399,-0.503 9.849,-0.638 9.066,-0.865 8.886,-0.924 8.504,-0.788 7.942,-0.439 7.41,-0.128 7.094,-0.023 6.93,-0.06 6.86,-0.166 6.794,-0.236 6.768,-0.272 6.492,-0.703 6.143,-1.153 5.759,-1.581 5.82,-1.811 5.886,-2.002 5.959,-2.195 5.954,-2.234 5.929,-2.312 5.875,-2.433 5.82,-2.551 5.764,-2.708 5.704,-2.911 5.528,-2.636 5.414,-2.403 5.348,-2.254 5.282,-2.096 5.232,-2.026 5.209,-2.026 5.181,-2.026 5.125,-2.143 5.035,-2.379 4.886,-2.737 4.739,-3.1 4.586,-3.429 c 0.13,0.007 0.239,0.01 0.371,0.017 0.258,0.008 0.358,-0.23 0.289,-0.725 C 5.057,-4.184 4.868,-4.271 4.646,-4.318 4.433,-4.367 4.318,-4.531 4.309,-4.78 4.299,-4.988 4.369,-5.276 4.496,-5.564 4.352,-5.905 4.147,-6.326 3.857,-6.882 3.399,-7.776 3.182,-8.236 3.182,-8.318 3.184,-8.993 3.357,-9.455 3.695,-9.75 c 0.31,-0.298 0.754,-0.436 1.334,-0.44 0.357,0 0.771,0.039 1.182,0.124 0.012,-2.008 0.153,-3.51 0.384,-4.549 0.21,-0.999 0.43,-1.451 0.735,-1.451 0.444,0.009 0.832,0.309 1.193,0.887 0.35,0.718 0.715,1.516 1.118,2.333 -0.006,0.279 -0.043,0.521 -0.112,0.803 0.092,0.165 0.295,0.46 0.615,0.924 0.175,0.25 0.438,0.629 0.754,1.094 0.017,0.275 0.021,0.548 0.025,0.829 -0.08,-0.002 -0.166,-0.046 -0.249,-0.131 -0.026,0.041 -0.055,0.041 -0.082,0.085 -0.078,0.126 -0.135,0.208 -0.211,0.334 0.22,0.208 0.554,0.59 1.015,1.037 0.438,0.409 0.672,0.643 0.729,0.641 0.569,-0.014 0.985,-0.274 1.179,-0.752 -0.003,-0.041 0.147,-0.528 0.406,-1.424 0.18,-0.165 0.36,-0.329 0.535,-0.491 0.107,0.466 0.199,0.93 0.283,1.351 0.088,0.269 0.3,0.575 0.632,0.939 0.49,-0.733 0.811,-1.316 0.97,-1.781 0.019,-0.072 0.037,-0.139 0.062,-0.212 -0.046,-0.754 -0.01,-1.248 0.179,-1.5 0.103,-0.134 0.255,-0.217 0.462,-0.26 0.024,0.075 0.041,0.152 0.057,0.222 -0.025,-0.005 -0.048,-0.009 -0.076,-0.014 0.103,0.715 0.107,1.131 0.076,1.3 -0.07,0.104 -0.117,0.169 -0.185,0.274 0.109,-0.08 0.224,-0.152 0.338,-0.228 0.057,0.051 0.107,0.099 0.161,0.148 0.067,0.442 0.109,0.892 0.122,1.351 -0.017,0.041 -0.026,0.085 -0.042,0.124 0.016,0.005 0.033,0.005 0.049,0.009 0,0.049 0.007,0.108 0.007,0.16 M 1.375,-12.451 c -0.031,0.273 -0.062,0.547 -0.092,0.819 -0.953,0.337 -1.658,0.806 -2.074,1.394 -0.263,0.396 -0.514,0.67 -0.731,0.827 -0.19,0.113 -0.348,0.227 -0.479,0.231 -0.106,0.039 -0.241,0.078 -0.418,0.078 -0.105,0.005 -0.257,0.007 -0.442,-0.024 -0.178,-0.034 -0.302,-0.031 -0.383,-0.029 -0.227,0.005 -0.455,0.077 -0.638,0.216 -0.181,0.103 -0.343,0.378 -0.518,0.737 -0.144,0.031 -0.295,0.092 -0.444,0.116 -0.054,0.07 -0.146,0.143 -0.262,0.217 0,-0.048 -0.003,-0.094 -0.003,-0.145 0,-0.198 0.02,-0.391 0.025,-0.59 0.034,-0.012 0.066,-0.024 0.102,-0.029 0.318,-0.034 0.813,-0.416 1.5,-1.173 -0.249,-0.64 -0.328,-1.114 -0.271,-1.482 0.054,-0.298 0.305,-0.624 0.79,-0.929 0.475,-0.304 0.823,-0.665 1.046,-1.001 0.203,-0.331 0.378,-0.72 0.484,-1.086 0.049,-0.227 0.102,-0.389 0.155,-0.553 0.029,-0.155 0.074,-0.289 0.108,-0.382 0.116,-0.32 0.319,-0.654 0.609,-0.978 0.263,-0.311 0.749,-0.766 1.376,-1.264 -0.387,0.791 -0.485,1.38 -0.331,1.657 0.29,0.551 0.511,1.595 0.891,3.373 m 8.252,-1.227 c -0.009,-0.115 -0.058,-0.352 -0.126,-0.775 0.176,0.012 0.351,0.021 0.531,0.038 0.22,0.442 0.442,0.89 0.657,1.352 -0.07,0.034 -0.093,0.07 -0.11,0.15 -0.024,0.072 0,0.27 0.025,0.634 -0.252,-0.216 -0.424,-0.383 -0.505,-0.424 -0.083,-0.046 -0.219,-0.094 -0.458,-0.143 -0.009,-0.121 0.01,-0.277 0.017,-0.473 -0.014,-0.121 -0.018,-0.238 -0.031,-0.359"
             style="fill:#ffffff;fill-opacity:1;fill-rule:nonzero;stroke:none"
             id="path735" />
        </g>
        <g
           id="g737"
           transform="translate(168.3867,431.7363)">
          <path
             d="m 0,0 c 0,-2.706 -5.997,-4.588 -10.581,-4.588 -16.701,0 -35.394,21.989 -56.327,21.989 -20.931,0 -41.039,-20.928 -41.863,-20.459 -0.823,0.469 12.7,26.223 44.685,26.223 24.575,0 42.455,-18.66 54.564,-18.66 C -3.7,4.505 0,1.881 0,0"
             style="fill:#132e53;fill-opacity:1;fill-rule:nonzero;stroke:none"
             id="path739" />
        </g>
      </g>
    </g>
  </g>
</svg>
